<svg xmlns="http://www.w3.org/2000/svg" width="9.5" height="9.062" viewBox="0 0 9.5 9.062">
  <defs>
    <style>
      .cls-1 {
        fill: #fff;
        fill-rule: evenodd;
      }
    </style>
  </defs>
  <path id="_-e-checkmark" data-name="-e-checkmark" class="cls-1" d="M872.745,474.757c-0.5.68-1.054,1.394-1.58,2.055-1.933,2.4-2.071,2.818-4.07,5.164a6.169,6.169,0,0,1-1.326-3.423c-0.123-.82-1.387-0.47-1.266.343a6.371,6.371,0,0,0,2.344,4.539,0.657,0.657,0,0,0,.8-0.1c2.094-2.475,2.34-3.013,4.38-5.527h0l0.006-.008h0c0.63-.786,1.249-1.581,1.848-2.392C874.376,474.733,873.236,474.091,872.745,474.757Z" transform="translate(-864.5 -474.469)"/>
</svg>
