<svg xmlns="http://www.w3.org/2000/svg" xmlns:xlink="http://www.w3.org/1999/xlink" width="36" height="35" viewBox="0 0 36 35"><defs><path id="i6tda" d="M1228.33 743.75a331.7 331.7 0 0 1-5.95-5.73 1517.04 1517.04 0 0 1 14.52-14.1l.74-.79-.73-.67c-.71-.66-1.32-.08-1.97.54l-1.5 1.43a1899.43 1899.43 0 0 0-12.46 12.16c-1.6-1.62-3.7-3.6-5.9-5.69-3.21-3.03-6.54-6.18-8.44-8.3-.36-.41-1-.45-1.43-.1a.97.97 0 0 0-.1 1.4 171.7 171.7 0 0 0 8.56 8.42c2.2 2.09 4.3 4.07 5.9 5.68l-6.87 6.57c-3.47 3.3-6.74 6.43-7.64 7.35a.97.97 0 0 0 .03 1.39 1.03 1.03 0 0 0 1.44-.03c.87-.9 4.29-4.15 7.59-7.3 2.6-2.48 5.25-5.01 6.84-6.56 1.55 1.56 3.7 3.6 5.95 5.74 3.57 3.39 7.25 6.9 8.35 8.28.2.26.5.4.8.4.22 0 .44-.08.62-.21a.97.97 0 0 0 .2-1.38c-1.2-1.5-4.77-4.9-8.55-8.5z"/></defs><g><g opacity=".5" transform="translate(-1203 -720)"><use fill="#3d3935" xlink:href="#i6tda"/></g></g></svg>