<svg xmlns="http://www.w3.org/2000/svg" width="28.5" height="4.72" viewBox="0 0 28.5 4.72">
  <defs>
    <style>
      .cls-1 {
        fill: #f1b828;
        fill-rule: evenodd;
      }
    </style>
  </defs>
  <path id="_-e-arrow2" data-name="-e-arrow2" class="cls-1" d="M1279.99,1429.87a24.081,24.081,0,0,1-4.17.97,5.352,5.352,0,0,1-.25-2.02c-2.07.02-6.3,0.06-9.21,0.11-1.2.02-2.56,0.13-3.96,0.13-1.8,0-3.67.15-5.38,0.15h-0.01a0.6,0.6,0,0,1-.5-0.59,0.549,0.549,0,0,1,.48-0.57c1.73-.04,3.6-0.07,5.41-0.07,1.39,0,2.75-.02,3.95-0.04,2.91-.04,7.15-0.09,9.22-0.12a4.378,4.378,0,0,1,.2-1.7,28.865,28.865,0,0,1,3.89.68c0.91,0.18,5.34,1.21,5.34,1.47C1285,1428.57,1280.99,1429.6,1279.99,1429.87Z" transform="translate(-1256.5 -1426.12)"/>
</svg>
