<svg xmlns="http://www.w3.org/2000/svg" width="9.624" height="15" viewBox="0 0 9.624 15">
  <defs>
    <style>
      .cls-1 {
        fill: #e06287;
        fill-rule: evenodd;
      }
    </style>
  </defs>
  <path id="_-e-location" data-name="-e-location" class="cls-1" d="M144.949,653.782a4.447,4.447,0,0,0-3.43,1.042,4.792,4.792,0,0,0-1.571,3.455c-0.146,3.4,1.908,5.2,3.493,8.137,0.229,0.425.454,0.843,0.668,1.251a2.121,2.121,0,0,0,.437.689,0.467,0.467,0,0,0,.381.394,0.468,0.468,0,0,0,.478-0.22c0.227-.376.128-0.226,0.368-0.614,1.847-2.99,3.681-4.843,3.782-8.466A5.267,5.267,0,0,0,144.949,653.782Zm0.039,13.62a0.486,0.486,0,0,0-.053-0.179c-0.216-.411-0.442-0.832-0.674-1.261-1.526-2.831-3.514-4.5-3.379-7.642a3.849,3.849,0,0,1,1.249-2.78,3.531,3.531,0,0,1,2.724-.816c0.1,0.01.194,0.023,0.289,0.04a4.374,4.374,0,0,1,3.477,4.66C148.527,662.785,146.769,664.517,144.988,667.4Zm1.124-9.832a1.148,1.148,0,0,0-.842-0.975,2.383,2.383,0,0,0-2.266.841,1.494,1.494,0,0,0-.25,1.643,2.39,2.39,0,0,0,1.549,1.1c0.082,0.021.163,0.039,0.243,0.052a1.9,1.9,0,0,0,1.432-.242,1.136,1.136,0,0,0,.5-0.846,1.889,1.889,0,0,0-.437-1.215A0.511,0.511,0,0,0,146.112,657.57Zm-0.715,1.592a1.12,1.12,0,0,1-.847.033,1.465,1.465,0,0,1-.9-0.555,0.467,0.467,0,0,1,.117-0.556,1.587,1.587,0,0,1,.661-0.448l0.114,0.116a3.144,3.144,0,0,1,.935,1.305A0.145,0.145,0,0,1,145.4,659.162Z" transform="translate(-139.938 -653.75)"/>
</svg>
